<?xml version="1.0" standalone="no"?>
<!DOCTYPE svg PUBLIC "-//W3C//DTD SVG 20010904//EN"
 "http://www.w3.org/TR/2001/REC-SVG-20010904/DTD/svg10.dtd">
<svg version="1.0" xmlns="http://www.w3.org/2000/svg"
 width="106.000000pt" height="104.000000pt" viewBox="0 0 106.000000 104.000000"
 preserveAspectRatio="xMidYMid meet">

<g transform="translate(0.000000,104.000000) scale(0.100000,-0.100000)"
fill="#000000" stroke="none">
<path d="M473 963 c9 -2 23 -2 30 0 6 3 -1 5 -18 5 -16 0 -22 -2 -12 -5z"/>
<path d="M603 963 c9 -2 25 -2 35 0 9 3 1 5 -18 5 -19 0 -27 -2 -17 -5z"/>
<path d="M428 953 c7 -3 16 -2 19 1 4 3 -2 6 -13 5 -11 0 -14 -3 -6 -6z"/>
<path d="M668 953 c7 -3 16 -2 19 1 4 3 -2 6 -13 5 -11 0 -14 -3 -6 -6z"/>
<path d="M710 940 c8 -5 20 -10 25 -10 6 0 3 5 -5 10 -8 5 -19 10 -25 10 -5 0
-3 -5 5 -10z"/>
<path d="M311 909 c-30 -17 -75 -53 -101 -79 -45 -44 -110 -143 -110 -165 0
-5 15 17 33 50 41 76 116 151 192 192 33 18 56 33 50 33 -5 0 -34 -14 -64 -31z"/>
<path d="M806 891 c78 -51 126 -103 169 -181 40 -75 47 -74 9 2 -32 62 -110
147 -174 188 -26 16 -50 30 -55 30 -4 0 18 -17 51 -39z"/>
<path d="M619 759 c-12 -24 -46 -70 -75 -101 -44 -46 -54 -63 -54 -92 0 -32
-5 -39 -55 -71 -30 -19 -55 -39 -55 -45 0 -5 -13 -24 -28 -42 -16 -18 -48 -75
-72 -126 -52 -110 -51 -112 57 -112 92 0 103 5 103 44 0 20 7 35 20 44 15 9
20 23 20 57 l0 45 55 0 54 0 3 56 3 55 85 38 c63 29 90 47 103 70 12 20 27 31
41 31 41 0 47 18 25 74 -34 85 -42 94 -101 99 -29 3 -65 8 -80 12 -24 6 -29 3
-49 -36z m130 12 l55 -6 27 -68 c20 -48 25 -69 16 -72 -7 -2 -23 -6 -37 -9
-16 -3 -30 -16 -36 -33 -9 -22 -30 -36 -103 -67 l-91 -40 0 -53 0 -53 -55 0
-55 0 0 -39 c0 -49 -8 -71 -25 -71 -9 0 -15 -14 -17 -38 l-3 -37 -79 -3 c-44
-2 -83 1 -88 6 -6 6 6 39 31 88 23 42 41 83 41 90 0 7 8 18 19 23 10 6 24 23
30 38 7 17 33 42 66 61 50 30 55 36 55 69 0 28 10 46 46 87 26 28 53 61 60 74
8 12 21 34 30 48 12 20 21 24 37 19 12 -4 46 -10 76 -14z"/>
<path d="M1011 624 c0 -11 3 -14 6 -6 3 7 2 16 -1 19 -3 4 -6 -2 -5 -13z"/>
<path d="M81 604 c0 -11 3 -14 6 -6 3 7 2 16 -1 19 -3 4 -6 -2 -5 -13z"/>
<path d="M1021 584 c0 -11 3 -14 6 -6 3 7 2 16 -1 19 -3 4 -6 -2 -5 -13z"/>
<path d="M72 550 c0 -19 2 -27 5 -17 2 9 2 25 0 35 -3 9 -5 1 -5 -18z"/>
<path d="M1033 485 c0 -38 2 -53 4 -32 2 20 2 52 0 70 -2 17 -4 1 -4 -38z"/>
<path d="M72 430 c0 -19 2 -27 5 -17 2 9 2 25 0 35 -3 9 -5 1 -5 -18z"/>
<path d="M1022 390 c0 -14 2 -19 5 -12 2 6 2 18 0 25 -3 6 -5 1 -5 -13z"/>
<path d="M81 379 c-1 -18 20 -82 25 -77 2 2 -3 24 -11 48 -7 25 -14 38 -14 29z"/>
<path d="M965 247 c-35 -59 -78 -106 -132 -144 -29 -20 -53 -38 -53 -40 0 -9
59 28 96 61 40 34 120 143 112 151 -2 3 -13 -10 -23 -28z"/>
<path d="M136 239 c25 -49 94 -119 158 -161 33 -21 64 -38 69 -38 6 0 -16 16
-49 36 -72 43 -116 84 -156 147 -36 54 -46 61 -22 16z"/>
<path d="M720 40 c-8 -5 -10 -10 -5 -10 6 0 17 5 25 10 8 5 11 10 5 10 -5 0
-17 -5 -25 -10z"/>
<path d="M390 30 c8 -5 22 -9 30 -9 10 0 8 3 -5 9 -27 12 -43 12 -25 0z"/>
<path d="M650 20 c-20 -6 -21 -8 -5 -8 11 0 29 3 40 8 25 11 -1 11 -35 0z"/>
<path d="M448 13 c6 -2 18 -2 25 0 6 3 1 5 -13 5 -14 0 -19 -2 -12 -5z"/>
<path d="M528 3 c18 -2 45 -2 60 0 15 2 0 4 -33 4 -33 0 -45 -2 -27 -4z"/>
</g>
</svg>
